<?xml version="1.0" standalone="no"?>
<!DOCTYPE svg PUBLIC "-//W3C//DTD SVG 20010904//EN"
 "http://www.w3.org/TR/2001/REC-SVG-20010904/DTD/svg10.dtd">
<svg version="1.0" xmlns="http://www.w3.org/2000/svg"
 width="512.000000pt" height="512.000000pt" viewBox="0 0 512.000000 512.000000"
 preserveAspectRatio="xMidYMid meet">

<g transform="translate(0.000000,512.000000) scale(0.100000,-0.100000)"
fill="#000000" stroke="none">
<path d="M2942 4378 c-7 -7 -12 -31 -12 -55 l0 -43 -41 0 c-49 0 -79 -15 -79
-38 0 -29 21 -42 67 -42 l43 0 0 -304 0 -304 -67 -48 c-92 -65 -190 -160 -280
-272 -74 -91 -158 -168 -215 -198 l-28 -15 0 120 0 120 48 3 c41 3 47 6 50 27
5 31 -21 51 -65 51 l-33 0 0 134 c0 109 -3 138 -16 150 -14 14 -118 16 -994
16 -538 0 -985 -3 -994 -6 -14 -5 -16 -28 -16 -150 l0 -144 -49 0 c-50 0 -81
-17 -81 -44 0 -23 24 -35 75 -38 l50 -3 0 -175 0 -175 -52 -3 c-56 -3 -78 -20
-68 -50 6 -22 33 -32 88 -32 l37 0 0 -330 c0 -181 -2 -330 -5 -330 -3 0 -24
13 -46 30 -86 62 -221 92 -234 51 -10 -33 5 -49 58 -61 153 -32 234 -127 253
-293 5 -41 12 -61 25 -67 25 -14 48 -2 55 27 6 24 -14 149 -30 186 -8 16 3 17
138 17 132 0 146 -2 146 -17 0 -10 3 -27 6 -38 4 -16 -4 -23 -40 -38 -106 -44
-192 -164 -203 -285 l-6 -61 -47 6 c-55 6 -144 -17 -200 -52 -84 -53 -135
-148 -155 -286 -5 -36 -3 -49 10 -62 35 -35 58 -11 74 81 27 153 118 236 249
230 71 -3 70 -3 93 -78 12 -38 19 -46 42 -48 36 -4 43 16 27 86 -41 178 19
336 149 394 113 51 243 -6 276 -122 10 -36 34 -59 85 -85 55 -28 113 -85 136
-133 13 -28 15 -49 9 -106 -4 -39 -8 -87 -10 -106 -2 -28 -15 -48 -63 -97 -59
-60 -62 -62 -92 -51 -85 29 -201 -15 -240 -92 -21 -42 -27 -105 -9 -115 24
-16 56 5 68 44 15 53 62 91 109 91 56 0 80 -9 76 -28 -14 -74 -13 -83 6 -102
31 -31 57 -12 66 48 9 64 26 102 64 146 118 134 341 103 416 -58 13 -28 24
-56 24 -63 0 -6 -24 -17 -52 -23 -111 -27 -219 -97 -288 -189 -49 -65 -52
-104 -8 -109 21 -3 32 5 56 40 92 133 217 194 386 186 142 -6 231 -54 327
-174 28 -35 57 -64 64 -64 8 0 21 10 29 22 14 19 13 24 -2 52 -28 49 -143 160
-198 188 -57 31 -152 58 -201 58 -22 0 -33 5 -33 15 0 8 -9 39 -20 69 -29 76
-88 139 -168 178 -61 30 -74 33 -155 32 -77 -1 -87 1 -81 15 3 9 9 51 12 94 4
72 2 82 -27 142 -35 70 -88 122 -162 160 -35 18 -48 31 -52 53 -15 76 -124
168 -213 180 l-49 7 -3 43 c-2 23 -1 42 1 42 8 0 275 -119 400 -178 243 -116
654 -348 787 -446 135 -98 247 -227 315 -360 43 -85 68 -103 95 -71 17 21 3
64 -51 157 -85 145 -204 267 -364 375 -249 167 -722 417 -1072 568 -113 48
-113 49 -113 83 0 32 2 34 26 28 95 -24 740 -336 984 -477 163 -94 328 -203
412 -274 193 -161 328 -422 328 -632 l0 -73 -100 0 c-99 0 -100 0 -106 -27
-14 -53 -16 -53 547 -53 457 0 519 2 533 16 9 8 16 21 16 28 0 34 -19 36 -417
36 l-393 0 0 63 c0 34 -3 79 -6 99 l-7 38 496 0 c484 0 497 0 507 20 8 15 6
24 -10 40 -20 20 -31 20 -515 20 -463 0 -496 1 -502 18 -6 17 -49 125 -60 150
-4 9 71 12 356 12 346 0 361 1 371 19 13 25 13 27 -6 45 -13 14 -64 16 -399
16 -298 0 -384 3 -388 13 -2 6 -26 38 -51 70 l-47 57 198 0 c109 0 203 4 209
8 17 11 22 35 12 54 -8 16 -31 18 -257 18 l-249 0 -40 33 c-21 17 -52 42 -68
54 l-29 22 166 0 c180 1 204 7 197 52 l-3 24 -250 5 -250 5 -70 42 -70 43 217
0 c211 0 217 1 232 22 11 15 12 26 5 40 -9 17 -28 18 -302 18 l-292 0 -95 50
-95 49 244 3 c219 3 245 5 255 21 8 12 8 22 0 35 -10 15 -34 17 -218 20 l-206
2 0 222 c0 204 -2 225 -21 265 -68 140 -264 166 -367 48 -18 -20 -38 -49 -45
-64 -6 -14 -13 -103 -16 -197 l-6 -171 -190 83 c-104 46 -195 83 -202 83 -31
2 -43 -30 -43 -120 l0 -89 -140 0 -140 0 0 230 0 230 65 0 c67 0 89 14 77 50
-8 24 -24 30 -84 30 l-58 0 0 75 0 75 930 0 931 0 -3 -137 -3 -138 -85 -5
c-81 -5 -85 -6 -88 -29 -6 -38 22 -51 105 -51 l73 0 0 -80 c0 -44 -4 -80 -8
-80 -4 0 -48 16 -96 35 -131 53 -375 135 -402 135 -13 0 -28 -9 -34 -19 -5
-11 -10 -84 -10 -165 0 -118 3 -147 16 -160 17 -18 24 -19 48 -10 13 5 16 26
16 130 0 102 3 124 14 124 23 0 275 -90 420 -150 160 -66 429 -198 583 -286
351 -200 723 -481 854 -644 98 -123 186 -320 205 -458 l6 -49 -138 -9 -139 -9
-3 -26 c-5 -46 11 -50 187 -43 133 6 163 10 170 23 11 21 -3 136 -29 236 -28
108 -105 264 -179 362 -92 122 -372 358 -604 508 -42 28 -77 55 -77 61 0 5 24
39 54 75 149 181 375 233 627 145 74 -26 99 -21 99 20 0 29 -30 44 -149 75
-96 26 -260 27 -345 4 -124 -33 -246 -121 -321 -229 l-38 -56 -31 19 c-115 70
-235 135 -398 214 -103 51 -188 94 -188 97 0 3 43 55 96 115 239 274 421 507
548 703 48 74 106 154 128 178 51 55 151 129 247 184 67 38 281 130 302 130 5
0 9 -17 9 -37 0 -36 -5 -41 -108 -121 -134 -101 -150 -117 -136 -140 22 -34
52 -25 137 40 114 89 107 87 107 29 l0 -50 -119 -92 c-66 -50 -122 -98 -125
-106 -9 -21 12 -53 34 -53 10 0 31 10 47 23 15 13 58 47 96 76 l67 53 0 -54 0
-53 -122 -95 c-68 -52 -124 -102 -126 -111 -3 -17 22 -49 38 -49 5 0 53 33
107 74 l98 75 5 -201 c4 -177 7 -202 23 -212 12 -8 22 -8 35 0 16 10 17 49 22
508 l5 496 64 -37 c81 -48 142 -102 192 -170 36 -48 43 -53 78 -53 60 0 188
-37 250 -72 122 -69 232 -212 266 -344 19 -76 25 -280 8 -277 -92 18 -189 23
-407 21 -234 -3 -260 -5 -270 -20 -8 -13 -8 -23 0 -35 10 -16 40 -19 310 -24
199 -4 312 -10 339 -19 191 -60 351 -223 395 -401 6 -24 14 -73 18 -109 l7
-65 35 0 35 0 -2 76 c-2 90 -37 205 -90 292 -46 76 -146 173 -222 217 l-61 35
0 125 c0 222 -49 349 -185 486 -97 98 -202 155 -333 181 l-84 17 -87 86 c-74
75 -101 94 -194 140 l-107 54 2 245 3 246 40 3 c46 4 65 17 65 43 0 23 -29 39
-69 39 -30 0 -31 2 -31 43 0 62 -30 86 -64 51 -9 -9 -16 -32 -16 -55 l0 -39
-80 0 -80 0 0 39 c0 23 -7 46 -16 55 -18 19 -20 19 -45 6 -14 -8 -19 -21 -19
-55 l0 -45 -85 0 -85 0 0 43 c0 62 -30 86 -64 51 -9 -9 -16 -32 -16 -55 l0
-39 -80 0 -80 0 0 39 c0 57 -38 89 -68 59z m716 -427 l2 -244 -52 6 c-29 4
-72 7 -94 7 l-41 0 -5 108 c-5 120 -19 156 -71 187 -41 25 -111 24 -144 -1
-61 -46 -68 -65 -70 -201 l-1 -126 -89 -28 c-48 -16 -89 -29 -90 -29 -2 0 -3
128 -3 285 l0 285 328 -2 327 -3 3 -244z m-291 -13 c7 -6 13 -49 15 -114 l3
-104 -35 -5 c-19 -3 -47 -8 -62 -10 l-28 -4 0 109 c0 106 1 109 27 129 26 21
53 21 80 -1z m53 -356 c-210 -105 -341 -213 -437 -361 -91 -141 -132 -200
-224 -321 -82 -108 -296 -368 -388 -470 l-40 -45 -1 238 0 237 33 0 c44 0 70
20 65 51 -3 21 -9 24 -50 27 -37 2 -48 7 -48 20 0 11 18 26 48 39 72 34 154
104 239 205 206 245 313 325 522 388 104 32 205 48 306 49 l90 1 -115 -58z
m-2930 -46 c0 -70 12 -90 52 -84 21 3 23 8 26 76 l3 72 114 0 114 0 3 -66 c3
-74 21 -99 56 -78 13 8 18 27 20 78 l3 66 114 0 114 0 3 -72 c3 -68 5 -73 26
-76 40 -6 52 14 52 84 l0 64 115 0 114 0 3 -72 c3 -68 5 -73 26 -76 40 -6 52
14 52 84 l0 64 110 0 110 0 0 -58 c0 -68 15 -95 51 -90 23 3 24 7 27 76 l3 72
114 0 115 0 0 -64 c0 -70 12 -90 52 -84 21 3 23 8 26 76 l3 72 64 0 65 0 0
-110 0 -110 -925 0 -925 0 0 110 0 110 50 0 50 0 0 -64z m1755 -416 l0 -175
-160 0 -160 0 -5 80 c-3 44 -11 89 -17 101 -43 75 -173 76 -215 2 -7 -13 -15
-59 -18 -103 l-5 -80 -331 -3 -331 -2 -5 80 c-5 92 -22 124 -81 153 -45 22
-85 16 -127 -19 -35 -30 -50 -77 -50 -156 l0 -58 -175 0 -175 0 0 180 0 180
928 -2 927 -3 0 -175z m-1345 -30 c17 -17 20 -31 18 -83 l-3 -62 -45 0 -45 0
-3 62 c-2 52 1 66 18 83 11 11 25 20 30 20 6 0 19 -9 30 -20z m922 3 c14 -13
18 -31 18 -85 l0 -68 -45 0 -45 0 0 75 c0 60 3 76 18 84 24 14 33 13 54 -6z
m-424 -457 c15 -8 38 -26 52 -41 25 -27 25 -27 28 -256 l3 -229 -80 0 c-71 0
-89 4 -146 32 l-65 32 0 176 c0 162 2 179 23 220 35 71 119 100 185 66z"/>
<path d="M3126 3037 c-11 -8 -17 -23 -14 -38 3 -24 4 -24 113 -24 l110 0 3 27
c3 22 -2 30 -23 38 -38 15 -168 13 -189 -3z"/>
<path d="M1737 2724 c-11 -11 -8 -49 5 -62 8 -8 51 -12 129 -12 126 0 144 7
137 52 -3 23 -6 23 -134 26 -71 1 -133 -1 -137 -4z"/>
<path d="M2966 2717 c-11 -8 -17 -23 -14 -38 3 -24 4 -24 113 -24 l110 0 3 27
c3 22 -2 30 -23 38 -38 15 -168 13 -189 -3z"/>
<path d="M630 2561 c-13 -25 -13 -27 6 -45 13 -13 42 -16 157 -16 78 0 147 4
153 8 17 11 22 35 12 55 -8 15 -26 17 -163 17 -142 0 -155 -2 -165 -19z"/>
<path d="M2726 2517 c-11 -8 -17 -23 -14 -38 3 -24 4 -24 113 -24 l110 0 3 27
c3 22 -2 30 -23 38 -38 15 -168 13 -189 -3z"/>
<path d="M3326 2517 c-11 -8 -17 -23 -14 -38 3 -24 4 -24 113 -24 l110 0 3 27
c3 22 -2 30 -23 38 -38 15 -168 13 -189 -3z"/>
<path d="M4150 2217 c-56 -18 -144 -112 -169 -180 -11 -32 -21 -70 -21 -85 0
-53 -11 -69 -61 -92 -101 -45 -163 -150 -143 -243 18 -79 78 -76 80 4 0 24 1
54 2 66 3 34 51 83 106 107 64 28 83 57 95 139 16 112 70 187 154 212 53 16
93 11 147 -15 69 -35 100 -95 100 -195 0 -56 4 -69 24 -90 13 -13 43 -29 67
-35 103 -28 135 -45 190 -99 70 -71 93 -135 88 -249 -7 -142 -83 -253 -223
-324 -78 -40 -185 -61 -262 -54 -68 7 -88 -4 -82 -46 4 -33 85 -45 195 -29
135 19 248 76 336 170 121 129 152 325 76 487 -48 101 -163 190 -276 214 l-50
11 -5 69 c-9 123 -76 220 -176 256 -44 16 -144 16 -192 1z"/>
<path d="M2110 2196 c-6 -8 -10 -25 -8 -37 2 -18 22 -30 98 -61 436 -176 929
-487 1235 -780 96 -91 137 -110 150 -69 9 30 -2 45 -98 133 -310 282 -617 488
-1011 679 -145 70 -329 149 -347 149 -3 0 -12 -7 -19 -14z"/>
<path d="M4620 1575 c-10 -12 -10 -28 -2 -69 26 -128 -60 -225 -198 -226 -60
0 -80 -11 -80 -46 0 -27 17 -34 83 -34 180 0 307 140 276 304 -14 74 -50 106
-79 71z"/>
</g>
</svg>
