<svg width="400" height="400" viewBox="0 29 128 70" xmlns="http://www.w3.org/2000/svg">
  <path
    d="M64,64.29m-64,0a64,64 0,1 1,128 0a64,64 0,1 1,-128 0"
    fill="#018A83" />
  <path
    d="M88.15,66.41H94.02L91.09,59.38L88.15,66.41ZM17.74,58.04C14,58.04 11.42,60.98 11.42,64.63V64.72C11.42,68.37 14.09,71.4 17.83,71.4C21.57,71.4 24.15,68.46 24.15,64.81V64.72C24.15,61.07 21.48,58.04 17.74,58.04ZM113.07,58.31H108.44V64.36H113.16C115.47,64.36 116.72,63.21 116.72,61.34V61.25C116.72,59.38 115.39,58.31 113.07,58.31ZM28.96,64.72C28.96,70.77 24.24,75.67 17.65,75.67C11.15,75.67 6.44,70.77 6.44,64.81V64.72C6.44,58.67 11.15,53.77 17.74,53.77C24.33,53.77 28.96,58.58 28.96,64.72ZM49.34,66.06C49.34,72.46 45.78,75.67 40.17,75.67C34.48,75.67 31,72.46 31,66.23V56.26C31,54.93 32.07,53.95 33.32,53.95C34.56,53.95 35.63,55.02 35.63,56.26V66.14C35.63,69.62 37.32,71.4 40.17,71.4C43.02,71.4 44.71,69.7 44.71,66.32V56.26C44.71,54.93 45.78,53.95 47.03,53.95C48.36,53.95 49.34,55.02 49.34,56.26V66.06ZM57.26,73.18C57.26,74.51 56.28,75.49 54.95,75.49C53.61,75.49 52.63,74.42 52.63,73.18V56.26C52.63,54.93 53.7,53.95 54.95,53.95C56.28,53.95 57.26,55.02 57.26,56.26V73.18ZM54.95,51.1C53.35,51.1 52.01,49.77 52.01,48.16C52.01,46.56 53.35,45.23 54.95,45.23C56.55,45.23 57.88,46.56 57.88,48.16C57.8,49.77 56.55,51.1 54.95,51.1ZM78.18,73C76.31,74.69 74,75.67 70.61,75.67C64.38,75.67 59.75,70.86 59.75,64.81V64.72C59.75,58.67 64.29,53.77 70.79,53.77C74,53.77 76.13,54.57 77.82,55.91C78.27,56.26 78.71,56.98 78.71,57.78C78.71,59.02 77.64,60.09 76.4,60.09C75.78,60.09 75.33,59.82 74.97,59.65C73.64,58.67 72.3,58.13 70.61,58.13C67.05,58.13 64.47,61.07 64.47,64.72V64.81C64.47,68.46 66.96,71.48 70.61,71.48C72.57,71.48 73.91,70.86 75.24,69.79C75.6,69.53 76.04,69.26 76.67,69.26C77.82,69.26 78.8,70.24 78.8,71.4C78.98,72.02 78.62,72.64 78.18,73ZM99.45,75.49C98.38,75.49 97.67,74.87 97.23,73.89L95.8,70.59H86.46L84.94,74.07C84.59,74.96 83.79,75.49 82.81,75.49C81.56,75.49 80.67,74.51 80.67,73.26C80.67,72.91 80.76,72.64 80.94,72.29L88.33,55.64C88.86,54.48 89.75,53.77 91.09,53.77H91.35C92.6,53.77 93.58,54.48 94.02,55.64L101.41,72.29C101.59,72.64 101.68,72.91 101.68,73.26C101.68,74.51 100.7,75.49 99.45,75.49ZM120.46,71.57C120.9,72.11 121.26,72.64 121.26,73.35C121.26,74.6 120.19,75.49 119.03,75.49C117.97,75.49 117.25,74.96 116.72,74.24L112.18,68.46H108.44V73.09C108.44,74.42 107.37,75.4 106.13,75.4C104.79,75.4 103.81,74.33 103.81,73.09V56.44C103.81,55.11 104.88,54.13 106.13,54.13H113.52C116.19,54.13 118.32,54.93 119.66,56.26C120.81,57.42 121.44,59.11 121.44,61.07V61.16C121.44,64.45 119.75,66.59 117.17,67.66L120.46,71.57Z"
    fill="#ffffff" />
</svg>
